<?xml version="1.0" encoding="UTF-8"?>
<svg width="331px" height="360px" viewBox="0 0 331 360" version="1.1" xmlns="http://www.w3.org/2000/svg" xmlns:xlink="http://www.w3.org/1999/xlink">
    <!-- Generator: Sketch 54.1 (76490) - https://sketchapp.com -->
    <title>Header shape 3</title>
    <desc>Created with Sketch.</desc>
    <defs>
        <linearGradient x1="91.9057836%" y1="44.9206313%" x2="38.0263636%" y2="54.8047331%" id="linearGradient-1">
            <stop stop-color="#7E77FF" offset="0%"></stop>
            <stop stop-color="#FFFFFF" stop-opacity="0" offset="100%"></stop>
        </linearGradient>
    </defs>
    <g id="Page-1" stroke="none" stroke-width="1" fill="none" fill-rule="evenodd" opacity="0.100000001">
        <g id="Preview-Landing-Page" transform="translate(-1369.000000, -386.000000)" fill="url(#linearGradient-1)">
            <path d="M1397.45156,441.657717 L1746.45156,441.657717 C1773.96147,441.657717 1799.68699,449.043305 1821.76106,461.947412 C1843.83514,474.851519 1862.25776,493.274144 1875.16187,515.348218 C1888.06598,537.422292 1895.45156,563.147815 1895.45156,590.657717 C1895.45156,618.167619 1888.06598,643.893141 1875.16187,665.967215 C1862.25776,688.04129 1843.83514,706.463915 1821.76106,719.368022 C1799.68699,732.272129 1773.96147,739.657717 1746.45156,739.657717 L1397.45156,739.657717 C1369.94166,739.657717 1344.21614,732.272129 1322.14207,719.368022 C1300.06799,706.463915 1281.64537,688.04129 1268.74126,665.967215 C1255.83715,643.893141 1248.45156,618.167619 1248.45156,590.657717 C1248.45156,563.147815 1255.83715,537.422292 1268.74126,515.348218 C1281.64537,493.274144 1300.06799,474.851519 1322.14207,461.947412 C1344.21614,449.043305 1369.94166,441.657717 1397.45156,441.657717 Z" id="Header-shape-3" transform="translate(1571.951564, 590.657717) rotate(-20.000000) translate(-1571.951564, -590.657717) "></path>
        </g>
    </g>
</svg>